<?xml version="1.0" encoding="UTF-8" standalone="no"?>
<svg
   xmlns:dc="http://purl.org/dc/elements/1.1/"
   xmlns:cc="http://creativecommons.org/ns#"
   xmlns:rdf="http://www.w3.org/1999/02/22-rdf-syntax-ns#"
   xmlns:svg="http://www.w3.org/2000/svg"
   xmlns="http://www.w3.org/2000/svg"
   height="450"
   width="450"
   id="svg204"
   y="0px"
   x="0px"
   viewBox="0 0 450 450"
   style="clip-rule:evenodd;fill-rule:evenodd;image-rendering:optimizeQuality;shape-rendering:geometricPrecision;text-rendering:geometricPrecision"
   version="1.1"
   xml:space="preserve">
    <g
     id="g198"><path
       style="fill:#000000"
       id="path196"
       d="M 225,0 C 349,0 450,101 450,225 450,349 349,450 225,450 101,450 0,349 0,225 0,101 101,0 225,0 Z m 32,131 c 46,13 136.45405,51.91898 136.45405,102.91898 C 393.45405,295.91898 287,351 225,351 163,351 33.100363,306.12152 33.100363,244.12152 33.100363,193.12152 147,144 193,131 v 32 c -29,12 -50,41 -50,75 0,46 37,83 82,83 45,0 82,-37 82,-83 0,-34 -21,-63 -50,-75 z M 309.34099,62.951028 C 319.34099,62.951028 243,107 243,117 v 102 c 0,11 -58.33253,50.96796 -68.33253,50.96796 C 164.66747,269.96796 206,230 206,219 V 117 c 0,-10 93.34099,-54.048972 103.34099,-54.048972 z"
       class="fil0" /></g></svg>